<svg width="379" height="280" viewBox="0 0 379 280" fill="none" xmlns="http://www.w3.org/2000/svg">
<g clip-path="url(#clip0)">
<path d="M379 103.398H219.692V108.071H379V103.398Z" fill="#E6E6E6"/>
<path d="M273.22 64.3147H232.862V104.673H273.22V64.3147Z" fill="#E6E6E6"/>
<path d="M265.148 72.3864H240.933V96.6011H265.148V72.3864Z" fill="#CCCCCC"/>
<path d="M333.544 64.3147H323.349V104.673H333.544V64.3147Z" fill="#E6E6E6"/>
<path d="M333.544 70.687H323.349V75.3601H333.544V70.687Z" fill="#CCCCCC"/>
<path d="M333.544 91.0784H323.349V95.7515H333.544V91.0784Z" fill="#CCCCCC"/>
<path d="M317.826 64.3147H307.63V104.673H317.826V64.3147Z" fill="#E6E6E6"/>
<path d="M317.826 70.687H307.63V75.3601H317.826V70.687Z" fill="#CCCCCC"/>
<path d="M317.826 91.0784H307.63V95.7515H317.826V91.0784Z" fill="#CCCCCC"/>
<path d="M342.329 64.1479L333.192 68.6717L351.098 104.84L360.235 100.316L342.329 64.1479Z" fill="#E6E6E6"/>
<path d="M345.156 69.8586L336.019 74.3824L338.093 78.5703L347.23 74.0465L345.156 69.8586Z" fill="#CCCCCC"/>
<path d="M354.204 88.133L345.067 92.6567L347.14 96.8446L356.277 92.3209L354.204 88.133Z" fill="#CCCCCC"/>
<path d="M247.943 80.5144L253.078 89.4074L258.212 98.3004H247.943H237.674L242.808 89.4074L247.943 80.5144Z" fill="#E6E6E6"/>
<path d="M256.864 82.2137L261.998 91.1067L267.133 99.9997H256.864H246.595L251.73 91.1067L256.864 82.2137Z" fill="#E6E6E6"/>
<path d="M260.475 79.6083C262.117 79.6083 263.449 78.2769 263.449 76.6345C263.449 74.9922 262.117 73.6608 260.475 73.6608C258.833 73.6608 257.501 74.9922 257.501 76.6345C257.501 78.2769 258.833 79.6083 260.475 79.6083Z" fill="#E6E6E6"/>
<path d="M219.692 43.9234L379 43.9234V39.2503L219.692 39.2503V43.9234Z" fill="#E6E6E6"/>
<path d="M325.473 40.5248L365.831 40.5248V0.166901L325.473 0.166901V40.5248Z" fill="#E6E6E6"/>
<path d="M333.544 32.4532H357.759V8.23845L333.544 8.23845V32.4532Z" fill="#CCCCCC"/>
<path d="M265.148 40.5248H275.344V0.166901H265.148V40.5248Z" fill="#E6E6E6"/>
<path d="M265.148 11.2122L275.344 11.2122V6.5392L265.148 6.5392V11.2122Z" fill="#CCCCCC"/>
<path d="M265.148 31.6036H275.344V26.9306H265.148V31.6036Z" fill="#CCCCCC"/>
<path d="M280.867 40.5248H291.062V0.166901H280.867V40.5248Z" fill="#E6E6E6"/>
<path d="M280.867 11.2122L291.062 11.2122V6.5392L280.867 6.5392V11.2122Z" fill="#CCCCCC"/>
<path d="M280.867 31.6036H291.062V26.9306H280.867V31.6036Z" fill="#CCCCCC"/>
<path d="M238.457 36.168L247.594 40.6917L265.5 4.52373L256.363 6.77228e-06L238.457 36.168Z" fill="#E6E6E6"/>
<path d="M251.463 9.89861L260.6 14.4223L262.673 10.2345L253.536 5.71073L251.463 9.89861Z" fill="#CCCCCC"/>
<path d="M242.415 28.173L251.552 32.6967L253.626 28.5088L244.489 23.9851L242.415 28.173Z" fill="#CCCCCC"/>
<path d="M350.749 16.3664L345.615 25.2594L340.481 34.1523H350.749H361.018L355.884 25.2594L350.749 16.3664Z" fill="#E6E6E6"/>
<path d="M341.828 18.0657L336.694 26.9586L331.56 35.8516H341.828H352.097L346.963 26.9586L341.828 18.0657Z" fill="#E6E6E6"/>
<path d="M338.217 15.4604C339.86 15.4604 341.191 14.129 341.191 12.4867C341.191 10.8443 339.86 9.51294 338.217 9.51294C336.575 9.51294 335.244 10.8443 335.244 12.4867C335.244 14.129 336.575 15.4604 338.217 15.4604Z" fill="#E6E6E6"/>
<path d="M219.692 172.219L379 172.219V167.546L219.692 167.546V172.219Z" fill="#E6E6E6"/>
<path d="M325.473 168.821H365.831V128.463H325.473V168.821Z" fill="#E6E6E6"/>
<path d="M333.544 160.749H357.759V136.534H333.544V160.749Z" fill="#CCCCCC"/>
<path d="M265.148 168.821H275.344V128.463H265.148V168.821Z" fill="#E6E6E6"/>
<path d="M265.148 139.508H275.344V134.835H265.148V139.508Z" fill="#CCCCCC"/>
<path d="M265.148 159.899H275.344V155.226H265.148V159.899Z" fill="#CCCCCC"/>
<path d="M280.867 168.821H291.062V128.463H280.867V168.821Z" fill="#E6E6E6"/>
<path d="M280.867 139.508H291.062V134.835H280.867V139.508Z" fill="#CCCCCC"/>
<path d="M280.867 159.899H291.062V155.226H280.867V159.899Z" fill="#CCCCCC"/>
<path d="M238.457 164.464L247.594 168.987L265.5 132.819L256.363 128.296L238.457 164.464Z" fill="#E6E6E6"/>
<path d="M251.463 138.194L260.6 142.718L262.673 138.53L253.536 134.007L251.463 138.194Z" fill="#CCCCCC"/>
<path d="M242.415 156.469L251.552 160.992L253.626 156.805L244.489 152.281L242.415 156.469Z" fill="#CCCCCC"/>
<path d="M350.749 144.662L345.615 153.555L340.481 162.448H350.749H361.018L355.884 153.555L350.749 144.662Z" fill="#E6E6E6"/>
<path d="M341.828 146.361L336.694 155.254L331.56 164.148H341.828H352.097L346.963 155.254L341.828 146.361Z" fill="#E6E6E6"/>
<path d="M338.217 143.756C339.86 143.756 341.191 142.425 341.191 140.782C341.191 139.14 339.86 137.809 338.217 137.809C336.575 137.809 335.244 139.14 335.244 140.782C335.244 142.425 336.575 143.756 338.217 143.756Z" fill="#E6E6E6"/>
<path d="M187.665 279.239C291.309 279.239 375.329 273.272 375.329 265.911C375.329 258.55 291.309 252.582 187.665 252.582C84.0203 252.582 0 258.55 0 265.911C0 273.272 84.0203 279.239 187.665 279.239Z" fill="#E6E6E6"/>
<path d="M334.278 273.375C303.677 267.928 270.215 268.834 235.114 273.375C251.112 259.868 264.92 246.362 248.921 232.856C280.129 239.294 284.5 238.643 319.215 232.856C311.163 246.362 326.226 259.868 334.278 273.375Z" fill="#FFBB91"/>
<path opacity="0.2" d="M334.278 273.375C303.677 267.928 270.215 268.834 235.114 273.375C251.112 259.868 264.92 246.362 248.921 232.856C280.129 239.294 284.5 238.643 319.215 232.856C311.163 246.362 326.226 259.868 334.278 273.375Z" fill="black"/>
<path d="M326.814 267.612C300.82 263.265 272.395 263.988 242.578 267.612C256.168 256.831 267.897 246.051 254.307 235.27C280.816 240.409 284.529 239.889 314.018 235.27C307.178 246.051 319.974 256.831 326.814 267.612Z" fill="#FFBB91"/>
<path d="M316.913 250.242C324.562 250.242 330.763 244.041 330.763 236.392C330.763 228.742 324.562 222.542 316.913 222.542C309.264 222.542 303.063 228.742 303.063 236.392C303.063 244.041 309.264 250.242 316.913 250.242Z" fill="#2F2E41"/>
<path d="M254.04 220.327L263.637 221.927L268.435 235.788L254.574 244.319L238.579 220.327H253.507H254.04Z" fill="#A0616A"/>
<path d="M281.23 241.653C293.597 241.653 303.622 231.628 303.622 219.261C303.622 206.894 293.597 196.869 281.23 196.869C268.864 196.869 258.839 206.894 258.839 219.261C258.839 231.628 268.864 241.653 281.23 241.653Z" fill="#A0616A"/>
<path d="M157.542 137.691C157.542 137.691 103.162 143.555 93.5657 142.489C83.9693 141.423 79.7042 140.357 79.7042 140.357C79.7042 140.357 73.3065 148.887 76.5053 152.619C78.2968 154.769 80.4647 156.576 82.903 157.95C82.903 157.95 88.7675 156.351 93.0326 157.95C97.2978 159.55 140.482 166.48 147.946 160.083C155.41 153.685 157.542 137.691 157.542 137.691Z" fill="#2F2E41"/>
<path d="M161.274 256.581C161.274 256.581 125.554 246.451 119.156 201.668V197.402C119.156 197.402 112.089 209.801 109.56 212.33C106.628 215.263 96.2314 241.653 96.7646 244.319C97.2977 246.984 96.7646 248.051 96.7646 248.051L81.3036 246.451V241.653C81.3036 241.653 89.5672 216.862 90.1004 210.997C90.6335 205.133 110.626 164.348 110.626 164.348C110.626 164.348 118.09 148.887 130.885 164.348C143.681 179.809 144.747 190.472 144.747 190.472L161.274 222.46L161.274 256.581Z" fill="#2F2E41"/>
<path d="M81.3036 138.757L64.2432 132.893C64.2432 132.893 48.249 121.164 51.981 132.893C55.7129 144.622 72.7734 170.212 77.5716 167.547C82.3698 164.881 88.1405 158.264 86.8546 157.308C85.5687 156.351 77.0385 149.42 81.3036 138.757Z" fill="#2F2E41"/>
<path d="M83.3657 238.505L69.5937 245.231C69.5937 245.231 52.9392 247.793 62.2273 252.598C71.5154 257.402 97.1376 262.526 98.4188 258.042C99.6999 253.558 99.1916 246.117 97.8443 246.315C96.4971 246.512 87.209 247.473 83.3657 238.505Z" fill="#2F2E41"/>
<path d="M154.343 221.394C154.343 221.394 147.413 251.249 159.142 257.647C170.871 264.045 252.974 265.111 259.372 253.382C265.769 241.653 262.57 241.653 262.57 241.653L245.51 222.46L259.372 221.394C259.372 221.394 259.372 217.129 254.573 216.595C249.775 216.062 234.847 210.731 222.052 214.463C209.257 218.195 201.793 206.999 201.793 206.999L154.343 221.394Z" fill="#575A89"/>
<path d="M145.28 128.094L136.217 177.677L198.594 170.213L209.79 125.429L145.28 128.094Z" fill="#3F3D56"/>
<path d="M147.146 129.96L139.682 174.211L196.461 167.547L207.391 127.295L147.146 129.96Z" fill="white"/>
<path d="M138.349 178.21L136.217 177.677L135.151 179.809L152.211 227.258L153.815 226.645L154.343 223.526L138.349 178.21Z" fill="#B3B3B3"/>
<path d="M136.217 177.143L153.277 226.725L217.787 217.129L198.594 170.213L136.217 177.143Z" fill="#D0CDE1"/>
<path d="M144.747 175.544V178.21L192.196 172.878L191.663 170.213L144.747 175.544Z" fill="#3F3D56"/>
<path d="M145.813 180.875L153.277 201.668L201.793 195.803L193.263 176.077L145.813 180.875Z" fill="#3F3D56"/>
<path d="M206.591 210.198L204.992 205.933C204.992 205.933 192.729 184.607 186.332 188.872C179.934 193.137 199.66 213.93 199.66 213.93H206.058L206.591 210.198Z" fill="#A0616A"/>
<path d="M166.072 213.396L164.473 206.999C164.473 206.999 160.208 187.273 167.672 188.339C175.136 189.405 177.268 208.065 177.268 208.065L176.735 212.33L166.072 213.396Z" fill="#A0616A"/>
<path d="M178.868 210.731C178.868 210.731 165.006 208.598 164.473 211.797C163.94 214.996 161.274 262.978 174.603 264.578C187.931 266.177 254.04 273.108 247.109 256.581C240.179 240.053 229.516 242.186 229.516 242.186L184.199 246.984L178.868 210.731Z" fill="#575A89"/>
<path d="M220.719 216.862L206.591 206.999L197.261 214.196L208.99 226.992L220.719 216.862Z" fill="#575A89"/>
<path opacity="0.2" d="M182.867 226.459L184.999 246.718L221.786 244.585L189.797 244.052L182.867 226.459Z" fill="black"/>
<path d="M292.284 249.987C307.006 249.987 318.94 238.052 318.94 223.33C318.94 208.608 307.006 196.673 292.284 196.673C277.561 196.673 265.627 208.608 265.627 223.33C265.627 238.052 277.561 249.987 292.284 249.987Z" fill="#2F2E41"/>
<path d="M155.143 145.421L188.198 144.271L191.397 132.093L157.276 133.123L155.143 145.421Z" fill="#FFBB91"/>
<path d="M146.613 152.352L196.728 150.753L197.261 148.62L147.146 150.385L146.613 152.352Z" fill="#E6E6E6"/>
<path d="M145.547 157.684L195.662 156.084L196.195 153.952L146.08 155.716L145.547 157.684Z" fill="#E6E6E6"/>
<path d="M145.014 161.949L195.128 160.349L195.662 158.217L145.547 159.981L145.014 161.949Z" fill="#E6E6E6"/>
</g>
<defs>
<clipPath id="clip0">
<rect width="379" height="279.239" fill="white"/>
</clipPath>
</defs>
</svg>
